<svg width="112" height="46" viewBox="0 0 112 46" fill="none" xmlns="http://www.w3.org/2000/svg">
    <g clip-path="url(#clip0_1289_3453)">
        <path d="M55.4201 8.00002L65.4001 25.36H70.2801L55.4201 -0.47998L40.5601 25.36H45.4301L55.4201 8.00002Z" fill="#F15C4E"/>
        <path d="M55.4201 16.48L60.5201 25.36H65.4001L55.4201 8.00003L45.4301 25.36H50.3101L55.4201 16.48Z" fill="#EFE2CA"/>
        <path d="M50.3101 25.36H60.5201L55.4201 16.48L50.3101 25.36Z" fill="#3E5566"/>
        <path d="M12.85 39.08C12.85 42.91 10.01 45.58 5.91 45.58H0.5V32.58H6.02C10.05 32.58 12.85 35.24 12.85 39.08ZM9.86 39.1C9.86 36.7 8.19 35.05 5.96 35.05H3.43V43.11H6.09C8.26 43.11 9.86 41.48 9.86 39.1Z" fill="#231F20"/>
        <path d="M23.99 32.58V35.07H20.02V45.58H17.09V35.07H13.13V32.58H23.99Z" fill="#231F20"/>
        <path d="M28.5 32.58V43.02H34.07V45.58H25.56V32.58H28.49H28.5Z" fill="#231F20"/>
        <path d="M44.47 43.05H38.45L37.43 45.58H34.4L40.05 32.58H43.08L48.63 45.58H45.49L44.47 43.05ZM43.52 40.69L41.48 35.64L39.42 40.69H43.52Z" fill="#231F20"/>
        <path d="M66.2701 37.09C66.2701 40.12 64.3801 41.86 61.0701 41.86H58.4901V45.57H55.5601V32.57H61.0801C64.3901 32.57 66.2801 34.2 66.2801 37.08L66.2701 37.09ZM63.4801 37.18C63.4801 35.73 62.5501 35.01 60.9201 35.01H58.4901V39.41H60.9201C62.5501 39.41 63.4801 38.67 63.4801 37.18Z" fill="#231F20"/>
        <path d="M76.13 45.58L74.07 41.87H71.08V45.58H68.15V32.58H73.8C77.2 32.58 79.13 34.21 79.13 37.09C79.13 39.1 78.28 40.54 76.7 41.29L79.47 45.58H76.15H76.13ZM71.08 39.42H73.79C75.41 39.42 76.33 38.68 76.33 37.19C76.33 35.7 75.4 35.02 73.79 35.02H71.08V39.42Z" fill="#231F20"/>
        <path d="M84.52 32.58V45.58H81.59V32.58H84.52Z" fill="#231F20"/>
        <path d="M90.07 32.58L96.38 40.94V32.58H99.17V45.58H96.5L90.2 37.24V45.58H87.4V32.58H90.07Z" fill="#231F20"/>
        <path d="M111.62 32.58V35.07H107.65V45.58H104.72V35.07H100.76V32.58H111.62Z" fill="#231F20"/>
    </g>
    <defs>
        <clipPath id="clip0_1289_3453">
            <rect width="111" height="46" fill="white" transform="translate(0.5)"/>
        </clipPath>
    </defs>
</svg>   